<?xml version="1.0" standalone="no"?>
<!DOCTYPE svg PUBLIC "-//W3C//DTD SVG 20010904//EN"
 "http://www.w3.org/TR/2001/REC-SVG-20010904/DTD/svg10.dtd">
<svg version="1.0" xmlns="http://www.w3.org/2000/svg"
 width="700.000000pt" height="700.000000pt" viewBox="0 0 700.000000 700.000000"
 preserveAspectRatio="xMidYMid meet">
<metadata>
Created by potrace 1.14, written by Peter Selinger 2001-2017
</metadata>
<g transform="translate(0.000000,700.000000) scale(0.100000,-0.100000)"
fill="#000000" stroke="none">
<path d="M3278 6995 c-1 -1 -42 -5 -89 -9 -47 -4 -95 -8 -105 -10 -10 -2 -41
-7 -69 -10 -414 -54 -855 -204 -1243 -423 -86 -48 -300 -186 -341 -219 -9 -7
-52 -41 -96 -75 -342 -266 -650 -623 -875 -1014 -47 -83 -170 -327 -170 -340
0 -3 -9 -24 -20 -48 -57 -123 -157 -435 -186 -582 -2 -11 -10 -54 -19 -95 -29
-147 -36 -200 -52 -370 -15 -165 -8 -592 12 -711 2 -13 6 -46 9 -74 9 -78 22
-152 51 -285 21 -96 91 -339 114 -395 5 -11 25 -65 46 -120 63 -166 249 -531
312 -610 4 -6 34 -49 65 -95 170 -255 433 -535 708 -755 92 -74 370 -265 386
-265 4 0 15 -6 23 -14 26 -22 298 -158 408 -204 146 -60 384 -141 459 -156 10
-2 57 -13 104 -25 109 -26 200 -43 299 -57 25 -3 57 -8 71 -10 124 -19 544
-26 720 -11 843 71 1650 460 2234 1076 77 81 76 80 152 171 426 512 702 1141
784 1789 7 52 14 106 16 120 9 50 11 526 4 606 -16 167 -22 220 -25 225 -2 3
-6 30 -10 60 -9 75 -69 337 -99 435 -224 737 -663 1364 -1272 1816 -294 219
-652 404 -1004 519 -149 49 -398 109 -520 125 -19 3 -46 7 -60 10 -13 2 -52 7
-86 11 -33 3 -74 8 -90 10 -33 5 -540 14 -546 9z m457 -1760 c84 -14 150 -33
148 -41 -2 -12 -257 -623 -278 -669 -33 -68 -130 -89 -181 -37 -17 17 -75 144
-166 362 -77 184 -140 339 -141 344 -3 14 65 30 178 42 28 3 51 7 53 9 6 6
346 -3 387 -10z m-1437 -1095 c155 -132 284 -251 288 -263 21 -66 -12 -140
-69 -153 -48 -11 -46 -11 -147 -19 -52 -3 -111 -8 -130 -10 -19 -2 -73 -6
-120 -10 -47 -4 -101 -8 -120 -10 -19 -2 -82 -6 -139 -10 l-103 -7 7 58 c10
96 34 202 72 319 42 133 150 358 168 351 7 -2 139 -113 293 -246z m2765 138
c32 -62 57 -117 57 -121 0 -5 6 -23 14 -40 38 -83 87 -278 101 -405 l7 -53
-114 6 c-62 4 -120 9 -129 10 -8 2 -55 6 -105 9 -49 4 -107 9 -129 11 -22 2
-80 7 -130 10 -116 8 -141 13 -175 30 -29 15 -60 68 -55 94 2 9 4 24 4 34 1
21 45 66 141 147 36 30 78 67 95 81 124 110 350 299 355 299 4 0 32 -51 63
-112z m-1468 -567 c154 -71 184 -280 55 -389 -61 -52 -167 -68 -241 -34 -182
81 -187 328 -9 423 47 24 142 25 195 0z m-680 -975 c36 -16 62 -48 68 -85 2
-13 -9 -78 -25 -145 -15 -67 -37 -159 -48 -206 -57 -244 -91 -386 -95 -398
-10 -27 -319 155 -440 260 -60 52 -185 178 -185 187 0 3 42 31 93 62 50 31
197 120 325 198 129 77 242 141 253 141 11 0 35 -6 54 -14z m1385 -70 c69 -42
132 -80 140 -85 8 -5 95 -58 193 -118 97 -59 177 -111 177 -114 0 -11 -123
-133 -191 -191 -56 -47 -150 -116 -210 -153 -9 -5 -62 -34 -118 -63 -70 -36
-103 -49 -106 -40 -2 7 -27 110 -55 228 -28 118 -65 271 -82 340 -35 144 -38
188 -14 225 22 33 72 56 111 51 17 -2 86 -38 155 -80z"/>
</g>
</svg>
